<svg width="24" height="24" viewBox="0 0 24 24" fill="none" xmlns="http://www.w3.org/2000/svg">
<path fill-rule="evenodd" clip-rule="evenodd" d="M3 17.4755V11.5851C3 10.9966 3 10.7022 3.07309 10.4283C3.13787 10.1856 3.24502 9.95593 3.38892 9.74839C3.5513 9.5142 3.77697 9.31999 4.22937 8.93244L9.63116 4.30489C10.4698 3.58643 10.8892 3.22718 11.3615 3.09043C11.7779 2.96986 12.2218 2.96986 12.6383 3.09043C13.1109 3.22728 13.5309 3.58687 14.3708 4.30642L19.7709 8.93244C20.2232 9.31999 20.449 9.5142 20.6114 9.74839C20.7553 9.95593 20.8616 10.1856 20.9264 10.4283C20.9995 10.7022 21 10.9966 21 11.5851V17.4794C21 18.7107 21 19.327 20.755 19.7978C20.5393 20.2123 20.1942 20.5489 19.7708 20.7601C19.29 21 18.6611 21 17.4035 21H15V17C15 15.3431 13.6569 14 12 14C10.3431 14 9 15.3431 9 17V21H6.59652C5.33887 21 4.7091 21 4.22827 20.7601C3.80491 20.5489 3.46095 20.2123 3.24524 19.7978C3 19.3265 3 18.7092 3 17.4755Z" fill="white"/>
<path d="M3.07309 10.4283L4.03927 10.6862L4.03927 10.6862L3.07309 10.4283ZM3.38892 9.74839L4.2107 10.3182L4.21071 10.3182L3.38892 9.74839ZM4.22937 8.93244L3.57879 8.173H3.57879L4.22937 8.93244ZM9.63116 4.30489L8.98058 3.54546L8.98057 3.54546L9.63116 4.30489ZM11.3615 3.09043L11.6396 4.05098L11.3615 3.09043ZM12.6383 3.09043L12.9164 2.12989L12.9164 2.12989L12.6383 3.09043ZM14.3708 4.30642L13.7203 5.06585L14.3708 4.30642ZM19.7709 8.93244L20.4214 8.173L20.4214 8.173L19.7709 8.93244ZM20.6114 9.74839L21.4332 9.1786V9.1786L20.6114 9.74839ZM20.9264 10.4283L21.8926 10.1704V10.1704L20.9264 10.4283ZM20.755 19.7978L21.6421 20.2594H21.6421L20.755 19.7978ZM19.7708 20.7601L20.2172 21.655L20.2172 21.655L19.7708 20.7601ZM15 21H14C14 21.5523 14.4477 22 15 22V21ZM9 21V22C9.55228 22 10 21.5523 10 21H9ZM4.22827 20.7601L3.78188 21.655L3.78188 21.655L4.22827 20.7601ZM3.24524 19.7978L2.35817 20.2594H2.35817L3.24524 19.7978ZM3 11.5851H2V17.4755H3H4V11.5851H3ZM3.07309 10.4283L2.10691 10.1704C1.9921 10.6006 2 11.05 2 11.5851H3H4C4 10.9432 4.0079 10.8037 4.03927 10.6862L3.07309 10.4283ZM3.38892 9.74839L2.56713 9.1786C2.35881 9.47905 2.20206 9.81393 2.10691 10.1704L3.07309 10.4283L4.03927 10.6862C4.07367 10.5573 4.13123 10.4328 4.2107 10.3182L3.38892 9.74839ZM4.22937 8.93244L3.57879 8.173C3.1651 8.5274 2.81984 8.81413 2.56713 9.1786L3.38892 9.74839L4.21071 10.3182C4.28276 10.2143 4.38885 10.1126 4.87995 9.69187L4.22937 8.93244ZM9.63116 4.30489L8.98057 3.54546L3.57879 8.173L4.22937 8.93244L4.87995 9.69187L10.2817 5.06432L9.63116 4.30489ZM11.3615 3.09043L11.0834 2.12989C10.6907 2.24357 10.3601 2.44048 10.043 2.67263C9.73628 2.89718 9.38835 3.19613 8.98058 3.54546L9.63116 4.30489L10.2817 5.06433C10.7126 4.69519 10.9937 4.45528 11.2244 4.28641C11.4447 4.12513 11.56 4.07404 11.6396 4.05098L11.3615 3.09043ZM12.6383 3.09043L12.9164 2.12989C12.3183 1.9567 11.6815 1.9567 11.0834 2.12989L11.3615 3.09043L11.6396 4.05098C11.8744 3.98301 12.1254 3.98301 12.3602 4.05098L12.6383 3.09043ZM14.3708 4.30642L15.0214 3.54699C14.613 3.19707 14.2646 2.89778 13.9575 2.67298C13.64 2.44062 13.3092 2.24362 12.9164 2.12989L12.6383 3.09043L12.3602 4.05098C12.44 4.0741 12.5555 4.12531 12.7762 4.28684C13.0072 4.45594 13.2888 4.69622 13.7203 5.06585L14.3708 4.30642ZM19.7709 8.93244L20.4214 8.173L15.0214 3.54699L14.3708 4.30642L13.7203 5.06585L19.1203 9.69187L19.7709 8.93244ZM20.6114 9.74839L21.4332 9.1786C21.1804 8.81409 20.835 8.52729 20.4214 8.173L19.7709 8.93244L19.1203 9.69187C19.6115 10.1127 19.7176 10.2143 19.7896 10.3182L20.6114 9.74839ZM20.9264 10.4283L21.8926 10.1704C21.7979 9.81586 21.6426 9.48071 21.4332 9.1786L20.6114 9.74839L19.7896 10.3182C19.8679 10.4312 19.9253 10.5553 19.9602 10.6862L20.9264 10.4283ZM21 11.5851H22C22 11.0484 22.0073 10.6002 21.8926 10.1704L20.9264 10.4283L19.9602 10.6862C19.9917 10.8041 20 10.9447 20 11.5851H21ZM21 17.4794H22V11.5851H21H20V17.4794H21ZM20.755 19.7978L21.6421 20.2594C21.8511 19.8577 21.93 19.4373 21.9659 19.007C22.0008 18.5889 22 18.0782 22 17.4794H21H20C20 18.1119 19.9992 18.525 19.9728 18.8406C19.9475 19.1439 19.9039 19.267 19.8679 19.3361L20.755 19.7978ZM19.7708 20.7601L20.2172 21.655C20.8258 21.3514 21.327 20.8648 21.6421 20.2594L20.755 19.7978L19.8679 19.3361C19.7516 19.5597 19.5626 19.7465 19.3244 19.8653L19.7708 20.7601ZM17.4035 21V22C18.0161 22 18.5346 22.0007 18.9583 21.9668C19.3931 21.932 19.8143 21.856 20.2172 21.655L19.7708 20.7601L19.3244 19.8653C19.2465 19.9042 19.1129 19.9481 18.7987 19.9732C18.4733 19.9993 18.0485 20 17.4035 20V21ZM15 21V22H17.4035V21V20H15V21ZM15 17H14V21H15H16V17H15ZM12 14V15C13.1046 15 14 15.8954 14 17H15H16C16 14.7909 14.2091 13 12 13V14ZM9 17H10C10 15.8954 10.8954 15 12 15V14V13C9.79086 13 8 14.7909 8 17H9ZM9 21H10V17H9H8V21H9ZM6.59652 21V22H9V21V20H6.59652V21ZM4.22827 20.7601L3.78188 21.655C4.18489 21.856 4.60644 21.932 5.04134 21.9668C5.46522 22.0007 5.98384 22 6.59652 22V21V20C5.95155 20 5.52646 19.9993 5.20084 19.9732C4.88624 19.948 4.75248 19.9041 4.67466 19.8653L4.22827 20.7601ZM3.24524 19.7978L2.35817 20.2594C2.6727 20.8638 3.17218 21.3508 3.78188 21.655L4.22827 20.7601L4.67466 19.8653C4.43763 19.7471 4.2492 19.5607 4.1323 19.3361L3.24524 19.7978ZM3 17.4755H2C2 18.0755 1.99919 18.5871 2.03412 19.0057C2.07007 19.4366 2.14897 19.8574 2.35817 20.2594L3.24524 19.7978L4.1323 19.3361C4.09627 19.2669 4.05255 19.1434 4.02719 18.8394C4.00081 18.5232 4 18.1092 4 17.4755H3Z" fill="white"/>
</svg>
